<svg id="svg" version="1.1" width="400" height="225.01708817498292" viewBox="0 0 400 225.01708817498292" xmlns="http://www.w3.org/2000/svg" xmlns:xlink="http://www.w3.org/1999/xlink" ><g id="svgg"><path id="path0" d="M0.000 21.722 L 0.000 31.964 187.795 31.964 L 375.591 31.964 377.159 29.796 C 378.022 28.603,379.291 26.856,379.980 25.913 C 380.668 24.970,382.183 22.881,383.346 21.272 C 386.192 17.333,388.426 14.278,389.340 13.075 C 389.756 12.529,390.096 12.012,390.096 11.927 C 390.096 11.752,377.549 11.472,377.118 11.637 C 376.966 11.695,375.816 13.634,374.564 15.945 C 373.312 18.256,372.189 20.298,372.069 20.484 C 371.948 20.670,371.548 21.455,371.179 22.228 L 370.508 23.635 364.238 23.635 L 357.968 23.635 358.494 22.566 C 358.783 21.978,359.115 21.384,359.232 21.246 C 359.348 21.108,359.668 20.500,359.942 19.895 C 360.216 19.291,360.514 18.745,360.603 18.683 C 360.693 18.621,360.953 18.165,361.182 17.670 C 361.410 17.175,361.704 16.695,361.834 16.604 C 361.964 16.514,361.991 16.438,361.893 16.436 C 361.795 16.434,361.825 16.306,361.958 16.151 C 362.227 15.840,363.019 14.380,363.750 12.850 C 364.353 11.588,364.191 11.442,362.274 11.525 L 360.720 11.593 357.382 17.727 L 354.045 23.860 347.647 23.860 C 343.784 23.860,341.249 23.776,341.249 23.648 C 341.249 23.531,342.667 20.841,344.401 17.670 C 348.105 10.894,347.964 11.480,345.885 11.480 L 344.218 11.480 341.064 17.276 C 339.330 20.464,337.776 23.253,337.610 23.474 C 337.332 23.845,336.828 23.870,330.846 23.811 L 324.382 23.748 327.624 17.795 C 329.407 14.520,330.816 11.760,330.755 11.661 C 330.693 11.561,256.248 11.480,165.322 11.480 L 0.000 11.480 0.000 21.722 M367.430 12.099 C 369.140 12.137,371.875 12.137,373.508 12.098 C 375.141 12.060,373.742 12.029,370.400 12.029 C 367.057 12.029,365.721 12.060,367.430 12.099 M300.386 198.859 C 297.783 199.790,296.473 200.566,295.089 201.994 C 293.589 203.542,293.692 203.674,295.471 202.481 C 296.858 201.551,298.336 200.943,300.675 200.341 C 301.462 200.139,301.714 199.934,302.098 199.182 C 302.700 198.000,302.755 198.011,300.386 198.859 M298.143 202.463 C 294.952 203.507,293.450 204.688,292.363 207.009 C 291.296 209.285,291.518 209.294,290.239 206.922 C 288.436 203.580,288.587 203.714,286.628 203.714 L 284.935 203.714 285.517 204.407 L 286.100 205.099 286.100 209.432 C 286.100 213.763,286.100 213.765,285.537 214.294 C 284.694 215.087,284.824 215.194,286.625 215.194 C 288.570 215.194,288.703 215.117,287.990 214.403 C 287.419 213.832,287.119 207.316,287.663 207.316 C 287.780 207.316,288.447 208.333,289.144 209.576 L 290.413 211.836 290.057 212.880 C 289.626 214.147,289.623 214.189,290.003 213.874 C 290.169 213.736,290.433 213.192,290.591 212.664 C 291.106 210.944,293.314 207.091,293.785 207.091 C 294.248 207.091,294.006 213.974,293.528 214.406 C 292.739 215.121,293.010 215.194,296.455 215.194 C 299.746 215.194,300.189 215.096,299.494 214.519 C 298.781 213.927,299.481 213.168,300.740 213.168 C 301.826 213.168,302.350 213.850,301.762 214.499 C 301.139 215.188,301.335 215.225,305.254 215.153 L 309.100 215.082 309.643 214.450 C 310.775 213.133,310.324 211.941,308.277 210.840 C 306.740 210.013,306.359 209.547,306.794 209.023 C 307.206 208.526,308.101 208.577,308.437 209.116 C 308.829 209.744,309.216 209.678,309.609 208.918 C 309.940 208.277,309.936 208.267,309.249 208.130 C 304.866 207.253,303.225 210.097,306.922 212.164 C 308.036 212.787,308.385 213.101,308.385 213.480 C 308.385 214.596,307.218 214.870,306.359 213.956 C 305.684 213.237,305.573 213.248,305.234 214.069 C 304.707 215.339,304.357 214.888,302.769 210.900 C 301.243 207.069,300.873 207.020,299.456 210.467 C 296.901 216.679,296.455 216.486,296.455 209.171 C 296.455 203.792,296.332 204.137,298.712 202.825 C 300.003 202.114,299.734 201.943,298.143 202.463 M301.182 203.420 C 299.342 204.078,300.188 206.640,302.245 206.640 L 303.208 206.640 303.208 205.740 C 303.208 204.930,303.151 204.840,302.645 204.840 C 302.335 204.840,302.082 204.941,302.082 205.065 C 302.082 205.189,302.183 205.290,302.307 205.290 C 302.672 205.290,302.564 205.967,302.176 206.116 C 301.626 206.327,300.869 205.446,301.034 204.786 C 301.193 204.154,302.053 203.690,302.735 203.868 C 303.071 203.956,303.208 203.887,303.208 203.628 C 303.208 203.260,301.981 203.134,301.182 203.420 M305.394 203.403 C 305.306 203.492,305.234 204.256,305.234 205.102 L 305.234 206.640 306.359 206.640 C 306.978 206.640,307.485 206.539,307.485 206.415 C 307.485 206.292,307.257 206.189,306.978 206.187 C 305.756 206.178,305.604 205.417,306.792 205.253 C 307.618 205.138,307.659 204.615,306.841 204.615 C 306.467 204.615,306.105 204.525,306.037 204.415 C 305.867 204.140,306.475 203.671,306.890 203.757 C 307.077 203.795,307.262 203.725,307.301 203.602 C 307.383 203.343,305.636 203.161,305.394 203.403 M309.510 203.714 C 308.922 204.303,308.900 205.750,309.472 206.268 C 310.056 206.796,311.369 206.748,311.884 206.179 C 313.311 204.602,311.011 202.214,309.510 203.714 M313.885 203.558 C 313.595 204.315,313.891 206.522,314.294 206.598 C 314.600 206.657,314.688 206.519,314.688 205.982 C 314.688 205.104,315.049 205.096,315.542 205.964 C 316.178 207.081,316.722 206.834,316.266 205.635 C 316.108 205.220,316.124 204.921,316.321 204.606 C 316.771 203.885,316.287 203.388,315.056 203.308 C 314.310 203.259,313.972 203.331,313.885 203.558 M318.671 203.720 C 317.260 204.829,318.140 206.640,320.090 206.640 L 321.216 206.640 321.216 205.740 C 321.216 204.880,321.184 204.840,320.505 204.840 C 319.807 204.840,319.802 204.847,320.207 205.295 C 320.781 205.929,320.353 206.382,319.533 206.009 C 318.292 205.443,318.990 203.832,320.459 203.873 C 321.560 203.904,321.301 203.394,320.173 203.309 C 319.528 203.261,319.108 203.376,318.671 203.720 M323.177 203.403 C 323.089 203.492,323.016 204.256,323.016 205.102 L 323.016 206.640 324.142 206.640 C 325.325 206.640,325.708 206.271,324.650 206.149 C 323.795 206.050,323.682 205.347,324.505 205.250 C 325.402 205.144,325.476 204.615,324.594 204.615 C 324.038 204.615,323.900 204.529,323.961 204.221 C 324.006 203.989,324.244 203.824,324.538 203.820 C 324.813 203.817,325.065 203.715,325.097 203.595 C 325.164 203.340,323.415 203.165,323.177 203.403 M329.094 211.579 C 329.094 216.730,329.176 219.720,329.319 219.809 C 329.468 219.900,329.544 217.147,329.544 211.718 C 329.544 206.382,329.465 203.489,329.319 203.489 C 329.173 203.489,329.094 206.336,329.094 211.579 M311.536 204.971 C 311.536 205.477,311.010 206.190,310.636 206.190 C 309.791 206.190,309.507 204.843,310.204 204.146 C 310.769 203.581,311.536 204.056,311.536 204.971 M315.545 204.333 C 315.503 204.550,315.320 204.727,315.138 204.727 C 314.956 204.727,314.772 204.550,314.731 204.333 C 314.677 204.057,314.799 203.939,315.138 203.939 C 315.477 203.939,315.598 204.057,315.545 204.333 M312.628 208.220 C 309.293 209.982,310.505 215.194,314.249 215.194 C 316.360 215.194,317.403 214.432,318.060 212.408 C 319.012 209.474,315.451 206.729,312.628 208.220 M318.592 208.403 C 319.114 208.979,319.143 214.090,318.627 214.519 C 318.027 215.017,318.263 215.194,319.527 215.194 C 320.791 215.194,321.028 215.017,320.428 214.519 C 320.035 214.193,319.930 210.692,320.313 210.692 C 320.435 210.692,321.473 211.825,322.620 213.210 L 324.705 215.727 324.767 212.264 C 324.818 209.442,324.897 208.726,325.196 208.396 C 325.544 208.011,325.500 207.991,324.289 207.991 C 322.993 207.991,322.751 208.166,323.354 208.666 C 323.706 208.958,323.859 211.605,323.523 211.580 C 323.430 211.573,322.717 210.763,321.939 209.779 L 320.525 207.991 319.372 207.991 C 318.270 207.991,318.236 208.009,318.592 208.403 M315.129 208.887 C 315.671 209.177,316.038 210.277,316.038 211.612 C 316.038 214.969,313.115 215.576,312.878 212.268 C 312.684 209.555,313.654 208.097,315.129 208.887 M340.670 210.766 C 340.432 211.387,340.681 215.043,340.968 215.138 C 341.181 215.209,341.249 214.655,341.249 212.849 C 341.249 210.669,341.022 209.850,340.670 210.766 M342.471 210.766 C 342.233 211.387,342.482 215.043,342.769 215.138 C 342.982 215.209,343.050 214.655,343.050 212.849 C 343.050 210.669,342.822 209.850,342.471 210.766 M360.811 210.861 C 360.219 211.599,359.963 212.208,360.161 212.408 C 360.269 212.517,360.388 213.155,360.426 213.826 C 360.527 215.612,361.058 215.643,361.058 213.862 C 361.058 212.643,361.107 212.493,361.508 212.493 C 362.101 212.493,362.087 212.129,361.489 211.972 C 360.866 211.810,361.008 211.054,361.679 210.958 C 361.957 210.918,362.183 210.792,362.183 210.677 C 362.183 210.311,361.141 210.451,360.811 210.861 M370.772 210.791 C 370.815 210.997,370.951 211.161,371.075 211.154 C 371.409 211.137,371.348 210.633,370.997 210.516 C 370.808 210.453,370.723 210.556,370.772 210.791 M301.063 211.356 C 301.521 212.242,301.512 212.268,300.732 212.268 C 299.999 212.268,299.943 212.146,300.276 211.270 C 300.555 210.535,300.644 210.545,301.063 211.356 M334.332 210.850 C 332.955 211.116,332.400 213.568,333.473 214.642 C 334.054 215.223,335.208 215.382,335.847 214.969 C 336.239 214.716,336.235 214.714,335.082 214.643 C 333.042 214.518,333.033 211.367,335.072 211.367 C 335.876 211.367,336.111 211.067,335.491 210.829 C 335.295 210.754,335.067 210.706,334.984 210.723 C 334.902 210.740,334.608 210.797,334.332 210.850 M364.716 210.919 C 363.645 211.360,364.092 212.544,365.704 213.539 C 366.347 213.935,365.817 214.641,364.910 214.598 C 364.444 214.576,364.209 214.671,364.209 214.880 C 364.209 215.366,365.854 215.290,366.313 214.783 C 366.995 214.028,366.792 213.232,365.785 212.718 C 364.588 212.108,364.606 211.348,365.819 211.279 C 366.051 211.266,366.243 211.154,366.245 211.030 C 366.251 210.727,365.343 210.661,364.716 210.919 M336.949 212.409 C 336.075 213.462,336.806 215.194,338.125 215.194 C 339.385 215.194,340.204 212.886,339.175 212.233 C 338.668 211.911,337.270 212.022,336.949 212.409 M344.409 212.478 C 344.060 213.129,344.127 214.439,344.529 214.840 C 344.918 215.229,346.652 215.335,346.652 214.969 C 346.652 214.845,346.368 214.744,346.021 214.744 C 345.349 214.744,344.851 214.390,344.851 213.911 C 344.851 213.720,345.160 213.618,345.738 213.618 C 346.776 213.618,346.961 213.419,346.659 212.624 C 346.371 211.868,344.790 211.765,344.409 212.478 M348.057 212.229 C 347.873 212.346,347.787 212.880,347.812 213.745 C 347.833 214.480,347.767 215.273,347.666 215.506 C 347.251 216.456,348.870 217.165,350.032 216.543 C 350.905 216.075,350.562 214.882,349.514 214.744 C 348.558 214.618,348.370 214.218,349.217 214.112 C 349.896 214.026,350.149 213.722,350.328 212.774 L 350.467 212.043 349.403 212.046 C 348.819 212.048,348.212 212.131,348.057 212.229 M351.580 212.409 C 351.113 212.972,351.192 214.501,351.708 214.878 C 352.206 215.242,353.537 215.302,353.742 214.969 C 353.823 214.838,353.600 214.744,353.209 214.744 C 352.560 214.744,351.829 214.259,351.829 213.827 C 351.829 213.713,352.335 213.618,352.954 213.618 C 354.153 213.618,354.334 213.387,353.847 212.478 C 353.548 211.919,352.026 211.872,351.580 212.409 M356.681 212.543 C 355.543 214.169,357.429 216.122,358.807 214.744 C 359.317 214.234,359.426 212.752,358.987 212.313 C 358.512 211.837,357.075 211.981,356.681 212.543 M367.940 212.396 C 366.981 213.355,367.720 215.194,369.065 215.194 C 369.490 215.194,369.837 215.093,369.837 214.969 C 369.837 214.845,369.596 214.744,369.302 214.744 C 368.000 214.744,367.814 212.659,369.105 212.535 C 369.508 212.496,369.837 212.370,369.837 212.254 C 369.837 211.903,368.319 212.017,367.940 212.396 M370.783 213.562 C 370.868 215.497,371.278 215.459,371.367 213.508 C 371.422 212.290,371.373 212.043,371.075 212.043 C 370.776 212.043,370.728 212.295,370.783 213.562 M372.630 212.605 C 372.171 213.306,372.369 214.638,372.983 214.966 C 373.530 215.259,374.721 215.261,374.902 214.969 C 374.984 214.835,374.719 214.744,374.247 214.744 C 373.694 214.744,373.384 214.613,373.221 214.309 C 372.870 213.652,372.908 213.618,374.001 213.618 C 374.908 213.618,375.014 213.564,375.014 213.101 C 375.014 211.935,373.302 211.579,372.630 212.605 M376.140 213.667 C 376.140 215.483,376.655 215.766,376.770 214.013 C 376.904 211.968,378.165 211.927,378.165 213.968 C 378.165 214.879,378.244 215.205,378.447 215.138 C 378.602 215.086,378.718 214.926,378.706 214.781 C 378.693 214.637,378.668 213.962,378.649 213.282 L 378.616 212.045 377.378 212.073 L 376.140 212.102 376.140 213.667 M380.092 212.543 C 379.290 213.687,379.987 215.194,381.317 215.194 C 382.187 215.194,382.191 214.840,381.323 214.666 C 380.077 214.417,380.136 212.685,381.396 212.534 C 382.266 212.430,382.125 212.043,381.217 212.043 C 380.671 212.043,380.338 212.191,380.092 212.543 M383.094 212.409 C 382.626 212.972,382.706 214.501,383.222 214.878 C 383.720 215.242,385.051 215.302,385.256 214.969 C 385.339 214.835,385.073 214.744,384.602 214.744 C 384.048 214.744,383.738 214.613,383.576 214.309 C 383.225 213.653,383.263 213.618,384.337 213.618 C 385.423 213.618,385.660 213.356,385.298 212.549 C 385.017 211.922,383.574 211.830,383.094 212.409 M338.902 213.039 C 339.167 214.094,338.569 214.911,337.760 214.600 C 337.417 214.468,337.271 212.945,337.573 212.643 C 337.950 212.265,338.769 212.509,338.902 213.039 M346.146 212.887 C 346.207 213.071,346.000 213.168,345.545 213.168 C 344.876 213.168,344.676 212.968,345.010 212.634 C 345.252 212.392,346.041 212.568,346.146 212.887 M349.690 213.056 C 349.690 213.358,349.515 213.531,349.158 213.581 C 348.509 213.673,348.118 213.327,348.309 212.831 C 348.521 212.277,349.690 212.468,349.690 213.056 M353.194 212.831 C 353.194 212.954,352.937 213.088,352.624 213.127 C 352.218 213.178,352.054 213.093,352.054 212.831 C 352.054 212.569,352.218 212.484,352.624 212.534 C 352.937 212.573,353.194 212.707,353.194 212.831 M358.537 213.413 C 358.618 214.380,358.095 214.973,357.494 214.594 C 356.635 214.053,356.922 212.427,357.858 212.535 C 358.381 212.595,358.479 212.722,358.537 213.413 M374.339 212.831 C 374.339 213.041,374.126 213.168,373.776 213.168 C 373.426 213.168,373.213 213.041,373.213 212.831 C 373.213 212.621,373.426 212.493,373.776 212.493 C 374.126 212.493,374.339 212.621,374.339 212.831 M384.693 212.831 C 384.693 213.041,384.481 213.168,384.131 213.168 C 383.780 213.168,383.568 213.041,383.568 212.831 C 383.568 212.621,383.780 212.493,384.131 212.493 C 384.481 212.493,384.693 212.621,384.693 212.831 M349.922 215.429 C 350.142 215.785,349.590 216.320,349.001 216.320 C 348.406 216.320,348.130 215.999,348.313 215.521 C 348.457 215.145,349.702 215.074,349.922 215.429 M285.200 218.311 C 285.200 219.578,286.237 220.370,286.956 219.651 C 287.273 219.333,287.323 217.445,287.014 217.445 C 286.897 217.445,286.770 217.876,286.732 218.402 C 286.684 219.071,286.562 219.358,286.325 219.358 C 286.089 219.358,285.967 219.071,285.918 218.402 C 285.826 217.124,285.200 217.045,285.200 218.311 M289.927 218.683 C 289.927 220.074,290.312 220.382,290.420 219.077 L 290.490 218.233 291.014 219.077 C 291.733 220.233,291.953 220.138,291.953 218.670 C 291.953 217.893,291.867 217.471,291.728 217.558 C 291.604 217.634,291.502 217.969,291.502 218.303 L 291.501 218.908 291.055 218.177 C 290.350 217.021,289.927 217.211,289.927 218.683 M295.104 218.683 C 295.104 219.364,295.205 219.921,295.329 219.921 C 295.453 219.921,295.554 219.364,295.554 218.683 C 295.554 218.002,295.453 217.445,295.329 217.445 C 295.205 217.445,295.104 218.002,295.104 218.683 M298.484 217.727 C 298.492 218.372,299.137 219.814,299.447 219.877 C 299.738 219.936,300.506 218.306,300.506 217.630 C 300.506 217.132,300.046 217.534,299.880 218.177 C 299.651 219.061,299.331 219.038,299.093 218.121 C 298.922 217.459,298.477 217.171,298.484 217.727 M303.208 218.683 L 303.208 219.921 303.995 219.921 C 304.855 219.921,305.083 219.546,304.295 219.430 C 303.540 219.319,303.511 218.800,304.258 218.773 C 304.875 218.752,304.878 218.746,304.350 218.598 C 303.661 218.406,303.462 217.895,304.076 217.895 C 304.327 217.895,304.594 217.794,304.671 217.670 C 304.754 217.536,304.486 217.445,304.009 217.445 L 303.208 217.445 303.208 218.683 M307.485 218.683 C 307.485 220.033,307.716 220.273,308.080 219.302 L 308.312 218.683 308.610 219.302 C 308.991 220.095,309.592 220.165,309.294 219.383 C 309.182 219.086,309.148 218.620,309.220 218.347 C 309.373 217.761,308.991 217.454,308.104 217.449 C 307.503 217.445,307.485 217.482,307.485 218.683 M311.964 217.809 C 311.704 218.124,311.746 218.241,312.274 218.662 C 313.002 219.242,313.048 219.471,312.437 219.471 C 312.189 219.471,311.986 219.572,311.986 219.696 C 311.986 220.011,312.965 219.978,313.292 219.651 C 313.719 219.225,313.610 218.808,312.999 218.530 C 312.323 218.221,312.265 217.895,312.887 217.895 C 313.134 217.895,313.337 217.794,313.337 217.670 C 313.337 217.307,312.294 217.412,311.964 217.809 M316.143 217.721 C 315.942 218.245,316.117 219.809,316.376 219.809 C 316.683 219.809,316.800 217.891,316.510 217.602 C 316.351 217.443,316.236 217.480,316.143 217.721 M319.415 217.670 C 319.415 217.794,319.516 217.895,319.640 217.895 C 319.764 217.895,319.865 218.351,319.865 218.908 C 319.865 219.465,319.966 219.921,320.090 219.921 C 320.214 219.921,320.315 219.513,320.315 219.014 C 320.315 218.415,320.430 218.062,320.653 217.977 C 321.260 217.744,321.007 217.445,320.203 217.445 C 319.769 217.445,319.415 217.546,319.415 217.670 M323.249 217.614 C 323.254 217.707,323.402 218.036,323.579 218.346 C 323.756 218.655,323.904 219.136,323.909 219.415 C 323.913 219.693,324.018 219.921,324.142 219.921 C 324.266 219.921,324.367 219.765,324.367 219.575 C 324.367 219.384,324.572 218.827,324.822 218.337 C 325.291 217.416,325.038 217.080,324.448 217.839 C 324.156 218.214,324.130 218.214,323.905 217.839 C 323.669 217.445,323.234 217.296,323.249 217.614 M308.644 218.233 C 308.644 218.351,308.535 218.483,308.402 218.527 C 308.269 218.572,308.160 218.439,308.160 218.233 C 308.160 218.027,308.269 217.894,308.402 217.938 C 308.535 217.983,308.644 218.115,308.644 218.233 " stroke="none" fill="#24633b" fill-rule="evenodd"></path><path id="path1" d="M0.000 5.740 L 0.000 11.480 165.504 11.477 L 331.007 11.475 332.921 7.946 C 333.973 6.006,335.374 3.424,336.034 2.209 L 337.234 0.000 168.617 0.000 L 0.000 0.000 0.000 5.740 M349.916 1.125 C 349.603 1.743,349.162 2.579,348.936 2.982 C 348.710 3.384,348.036 4.626,347.438 5.740 C 346.839 6.854,345.911 8.563,345.375 9.538 C 344.839 10.512,344.401 11.348,344.401 11.395 C 344.401 11.442,345.135 11.480,346.033 11.480 L 347.665 11.480 350.704 5.930 C 352.375 2.877,353.776 0.294,353.817 0.190 C 353.859 0.085,353.126 0.000,352.189 0.000 L 350.486 0.000 349.916 1.125 M365.718 2.645 C 360.216 12.684,360.620 11.518,362.670 11.434 L 364.281 11.367 366.506 7.316 C 367.729 5.087,369.134 2.530,369.627 1.632 L 370.524 0.000 368.845 0.000 L 367.167 0.000 365.718 2.645 M383.362 0.394 C 383.240 0.611,381.833 3.168,380.235 6.078 L 377.330 11.367 384.051 11.427 C 387.747 11.460,390.771 11.548,390.771 11.624 C 390.771 11.699,390.157 12.584,389.407 13.590 C 387.674 15.914,386.789 17.121,384.693 20.021 C 383.765 21.306,382.679 22.771,382.281 23.277 C 381.883 23.784,380.376 25.819,378.932 27.800 C 377.488 29.781,376.105 31.579,375.860 31.795 C 375.436 32.170,366.156 32.189,187.707 32.189 L 0.000 32.189 0.000 128.644 L 0.000 225.098 10.186 225.096 L 20.371 225.094 24.761 217.063 C 29.256 208.840,30.096 207.290,32.183 203.376 C 32.843 202.138,33.482 200.999,33.602 200.844 C 33.875 200.491,46.820 200.430,46.820 200.781 C 46.820 201.037,34.592 223.564,33.956 224.479 L 33.526 225.098 35.409 225.098 C 36.759 225.098,37.294 225.019,37.302 224.817 C 37.308 224.662,40.254 219.167,43.848 212.606 L 50.382 200.675 56.930 200.616 C 60.531 200.583,63.478 200.625,63.478 200.709 C 63.478 200.793,63.058 201.630,62.546 202.569 C 62.033 203.509,61.284 204.885,60.882 205.627 C 54.292 217.805,50.530 224.589,50.242 224.817 C 49.957 225.042,84.857 225.098,224.943 225.098 L 400.000 225.098 400.000 112.549 L 400.000 0.000 391.792 0.000 C 384.209 0.000,383.567 0.030,383.362 0.394 M305.459 193.464 C 305.459 194.483,303.755 196.489,302.584 196.849 C 300.459 197.504,297.781 198.884,296.285 200.097 C 294.281 201.721,294.110 201.564,295.559 199.430 C 296.659 197.810,298.244 196.686,301.401 195.287 C 302.665 194.726,303.969 194.066,304.298 193.821 C 304.853 193.406,305.459 193.220,305.459 193.464 M302.819 197.998 C 303.390 198.570,301.693 200.334,300.255 200.664 C 298.333 201.104,296.176 202.081,294.801 203.134 C 293.477 204.148,293.245 204.034,294.104 202.795 C 295.311 201.053,297.376 199.722,300.732 198.520 C 302.730 197.805,302.646 197.826,302.819 197.998 M79.752 200.705 C 79.830 200.783,79.657 201.264,79.367 201.774 C 79.077 202.284,78.542 203.258,78.179 203.939 C 77.816 204.620,75.104 209.609,72.151 215.025 L 66.783 224.873 60.285 224.873 L 53.787 224.873 54.161 224.142 C 54.809 222.876,66.436 201.601,66.771 201.069 C 67.086 200.569,79.274 200.227,79.752 200.705 M300.281 202.094 C 300.281 202.193,299.812 202.502,299.238 202.781 C 298.664 203.060,297.853 203.548,297.437 203.865 L 296.680 204.443 296.680 209.228 C 296.680 213.251,296.735 214.059,297.024 214.300 C 297.360 214.578,298.001 214.099,298.023 213.554 C 298.027 213.456,298.550 212.114,299.186 210.571 C 300.655 207.005,301.342 206.696,302.292 209.173 C 302.588 209.947,303.118 211.255,303.469 212.080 C 303.821 212.906,304.108 213.679,304.108 213.797 C 304.108 214.483,304.769 214.524,305.113 213.859 C 305.546 213.022,305.680 213.008,306.359 213.731 C 306.927 214.335,307.678 214.460,308.115 214.024 C 308.621 213.517,308.385 213.191,306.920 212.371 C 303.372 210.387,304.108 207.576,308.112 207.826 C 310.354 207.966,310.370 207.977,309.743 208.992 C 309.177 209.908,308.852 209.982,308.263 209.332 C 307.748 208.762,306.922 208.831,306.922 209.444 C 306.922 209.750,307.337 210.115,308.272 210.634 C 310.441 211.837,310.992 213.044,309.968 214.345 C 309.167 215.365,308.483 215.489,304.671 215.310 C 301.003 215.138,300.967 215.129,301.547 214.489 C 302.148 213.825,301.782 213.393,300.619 213.393 C 299.456 213.393,299.090 213.825,299.691 214.489 C 300.304 215.166,300.174 215.194,296.455 215.194 C 292.787 215.194,292.510 215.125,293.303 214.406 C 293.905 213.862,294.018 207.266,293.417 207.765 C 292.917 208.180,291.729 210.343,291.068 212.041 C 290.019 214.737,289.000 215.546,289.783 213.061 C 290.219 211.678,290.208 211.641,288.485 208.792 L 287.676 207.455 287.676 210.610 C 287.676 213.684,287.690 213.779,288.239 214.294 C 289.102 215.105,288.957 215.194,286.775 215.194 C 284.597 215.194,284.505 215.146,285.217 214.388 C 285.922 213.638,285.904 204.944,285.197 204.353 C 284.370 203.663,284.661 203.489,286.650 203.489 L 288.550 203.489 289.967 206.080 L 291.384 208.671 292.195 206.913 C 293.056 205.048,293.950 204.188,296.230 203.031 C 297.868 202.200,300.281 201.641,300.281 202.094 M303.376 203.357 C 303.702 203.683,303.152 204.164,302.454 204.164 C 301.619 204.164,301.101 204.598,301.219 205.199 C 301.313 205.675,302.000 206.127,302.240 205.870 C 302.339 205.765,302.293 205.633,302.138 205.578 C 301.456 205.334,301.844 204.615,302.657 204.615 L 303.457 204.615 303.389 205.684 L 303.320 206.753 302.345 206.823 C 299.934 206.996,298.931 204.303,301.051 203.347 C 301.676 203.066,303.091 203.072,303.376 203.357 M311.398 203.254 C 312.110 203.525,312.716 204.657,312.535 205.378 C 312.000 207.512,308.835 207.294,308.835 205.123 C 308.835 203.503,309.938 202.699,311.398 203.254 M320.859 203.175 C 321.599 203.459,321.276 204.153,320.419 204.121 C 319.441 204.084,319.132 204.365,319.228 205.206 C 319.300 205.836,320.315 206.349,320.315 205.756 C 320.315 205.623,320.214 205.515,320.090 205.515 C 319.966 205.515,319.865 205.306,319.865 205.050 C 319.865 204.662,319.985 204.598,320.597 204.657 C 321.303 204.725,321.328 204.762,321.328 205.740 L 321.328 206.753 320.148 206.821 C 318.685 206.905,317.839 206.238,317.839 205.002 C 317.839 203.689,319.532 202.666,320.859 203.175 M307.710 203.597 C 307.710 203.781,307.431 203.992,307.091 204.067 C 306.094 204.287,305.986 204.353,306.584 204.375 C 307.908 204.425,308.118 205.515,306.803 205.515 C 306.397 205.515,306.165 205.608,306.246 205.740 C 306.323 205.864,306.684 205.965,307.048 205.965 C 307.560 205.965,307.710 206.067,307.710 206.415 C 307.710 206.815,307.560 206.866,306.359 206.866 L 305.008 206.866 305.008 205.065 L 305.008 203.264 306.359 203.264 C 307.402 203.264,307.710 203.340,307.710 203.597 M316.576 203.770 C 316.759 204.061,316.749 204.281,316.538 204.619 C 316.335 204.944,316.319 205.199,316.483 205.505 C 316.892 206.269,316.768 206.866,316.200 206.866 C 315.835 206.866,315.596 206.654,315.373 206.134 L 315.059 205.402 314.971 206.147 C 314.893 206.805,314.812 206.884,314.278 206.823 C 313.673 206.753,313.264 204.592,313.660 203.558 C 313.846 203.075,316.250 203.250,316.576 203.770 M325.450 203.656 C 325.405 203.887,325.097 204.099,324.702 204.172 L 324.029 204.296 324.778 204.453 C 325.716 204.650,325.703 205.365,324.759 205.474 C 323.925 205.570,323.972 205.965,324.817 205.965 C 325.342 205.965,325.492 206.065,325.492 206.415 C 325.492 206.815,325.342 206.866,324.142 206.866 L 322.791 206.866 322.791 205.065 L 322.791 203.264 324.158 203.264 C 325.337 203.264,325.515 203.318,325.450 203.656 M329.544 211.593 C 329.544 216.995,329.465 219.921,329.319 219.921 C 329.173 219.921,329.094 216.995,329.094 211.593 C 329.094 206.190,329.173 203.264,329.319 203.264 C 329.465 203.264,329.544 206.190,329.544 211.593 M310.322 204.285 C 309.900 204.708,309.876 204.936,310.194 205.530 C 310.475 206.056,310.987 206.098,311.175 205.609 C 311.572 204.572,310.970 203.637,310.322 204.285 M315.880 207.845 C 319.776 209.472,318.705 215.419,314.516 215.419 C 312.127 215.419,310.636 213.949,310.636 211.594 C 310.636 208.594,313.232 206.738,315.880 207.845 M322.010 209.510 L 323.354 211.255 323.424 210.158 C 323.478 209.298,323.394 208.955,323.030 208.568 C 322.338 207.831,322.427 207.766,324.129 207.766 C 325.846 207.766,326.160 207.949,325.487 208.559 C 325.081 208.926,325.042 209.261,325.042 212.415 C 325.042 214.315,324.951 215.869,324.840 215.869 C 324.728 215.869,323.690 214.742,322.533 213.364 L 320.428 210.858 320.360 212.393 C 320.305 213.648,320.375 214.039,320.747 214.542 L 321.201 215.156 319.723 215.232 C 318.122 215.313,317.822 215.159,318.380 214.543 C 318.890 213.980,318.908 208.862,318.402 208.441 C 317.796 207.938,318.042 207.766,319.366 207.766 L 320.667 207.766 322.010 209.510 M313.438 209.441 C 312.678 210.601,313.013 213.732,313.935 214.082 C 315.125 214.535,315.813 213.571,315.813 211.451 C 315.813 209.177,314.396 207.978,313.438 209.441 M341.426 212.702 C 341.489 214.965,341.316 215.626,340.754 215.279 C 340.339 215.023,340.546 210.204,340.968 210.284 C 341.308 210.349,341.371 210.681,341.426 212.702 M343.226 212.774 C 343.174 214.847,343.101 215.307,342.825 215.307 C 342.549 215.307,342.476 214.847,342.424 212.774 C 342.363 210.345,342.379 210.242,342.825 210.242 C 343.271 210.242,343.287 210.345,343.226 212.774 M362.296 210.692 C 362.296 210.878,362.068 211.062,361.790 211.102 C 361.163 211.191,361.114 211.818,361.733 211.818 C 361.983 211.818,362.183 211.968,362.183 212.155 C 362.183 212.341,361.986 212.493,361.744 212.493 C 361.362 212.493,361.296 212.677,361.238 213.900 C 361.145 215.851,360.527 215.927,360.427 214.001 C 360.381 213.117,360.254 212.655,360.033 212.570 C 359.668 212.430,359.584 211.818,359.929 211.818 C 360.052 211.818,360.302 211.457,360.487 211.015 C 360.848 210.151,362.296 209.892,362.296 210.692 M371.557 210.582 C 371.629 210.770,371.559 211.079,371.401 211.269 C 371.034 211.711,370.370 211.162,370.587 210.597 C 370.760 210.145,371.386 210.136,371.557 210.582 M335.566 210.609 C 336.485 210.855,336.210 211.593,335.199 211.593 C 334.248 211.593,333.938 211.836,333.705 212.764 C 333.495 213.602,334.482 214.628,335.300 214.422 C 335.943 214.261,336.351 214.879,335.823 215.213 C 335.159 215.634,334.107 215.432,333.366 214.740 C 332.127 213.582,332.764 210.935,334.355 210.622 C 334.619 210.571,334.885 210.516,334.947 210.501 C 335.008 210.486,335.287 210.534,335.566 210.609 M366.444 210.785 C 366.751 211.155,366.414 211.458,365.677 211.472 C 364.938 211.486,365.010 212.172,365.783 212.492 C 367.026 213.007,367.283 214.193,366.317 214.953 C 365.715 215.427,364.341 215.589,364.109 215.214 C 363.824 214.752,364.248 214.313,364.861 214.435 C 365.923 214.648,366.218 213.961,365.299 213.416 C 364.184 212.754,363.984 212.530,363.984 211.938 C 363.984 210.885,365.815 210.027,366.444 210.785 M300.425 211.254 C 300.187 211.876,300.262 212.268,300.619 212.268 C 300.986 212.268,301.064 211.661,300.759 211.180 C 300.608 210.940,300.540 210.955,300.425 211.254 M339.133 211.990 C 340.456 212.873,339.618 215.419,338.005 215.419 C 336.669 215.419,335.994 213.572,336.873 212.318 C 337.228 211.810,338.572 211.615,339.133 211.990 M346.832 212.550 C 347.234 213.393,347.027 213.618,345.851 213.618 C 345.301 213.618,344.851 213.699,344.851 213.799 C 344.851 214.194,345.430 214.519,346.134 214.519 C 346.922 214.519,347.180 215.029,346.521 215.283 C 344.660 215.997,343.149 213.962,344.309 212.306 C 344.851 211.532,346.418 211.684,346.832 212.550 M350.582 212.549 C 350.357 213.598,350.068 214.066,349.507 214.292 C 349.031 214.484,349.034 214.491,349.589 214.505 C 350.748 214.533,351.161 215.974,350.203 216.645 C 348.968 217.510,346.969 216.721,347.492 215.574 C 347.622 215.289,347.690 214.511,347.643 213.845 C 347.528 212.206,347.887 211.818,349.518 211.818 L 350.739 211.818 350.582 212.549 M353.847 212.253 C 354.347 213.188,354.149 213.618,353.217 213.618 C 352.742 213.618,352.288 213.685,352.206 213.767 C 351.908 214.065,352.580 214.519,353.320 214.519 C 354.119 214.519,354.259 214.700,353.810 215.149 C 353.033 215.925,351.360 215.133,351.053 213.844 C 350.694 212.337,353.145 210.941,353.847 212.253 M359.132 212.318 C 359.666 213.081,359.576 214.221,358.930 214.867 C 357.367 216.429,355.193 214.164,356.572 212.411 C 357.195 211.620,358.607 211.568,359.132 212.318 M369.949 212.268 C 369.949 212.460,369.747 212.606,369.479 212.606 C 368.881 212.606,368.261 213.112,368.261 213.601 C 368.261 214.160,368.719 214.519,369.432 214.519 C 370.120 214.519,370.311 215.051,369.706 215.283 C 367.899 215.976,366.443 213.590,367.865 212.266 C 368.465 211.707,369.949 211.708,369.949 212.268 M371.592 213.488 C 371.657 214.977,371.425 215.592,370.917 215.279 C 370.507 215.026,370.711 211.780,371.131 211.860 C 371.453 211.921,371.537 212.220,371.592 213.488 M374.885 212.171 C 375.658 212.944,375.344 213.618,374.210 213.618 C 372.771 213.618,372.836 214.371,374.284 214.476 C 375.278 214.548,375.425 214.693,374.969 215.149 C 374.058 216.061,372.270 215.101,372.233 213.680 C 372.192 212.093,373.859 211.145,374.885 212.171 M378.836 212.258 C 379.187 212.915,379.122 214.867,378.738 215.186 C 378.200 215.632,377.940 215.239,377.940 213.980 C 377.940 212.590,377.790 212.355,377.227 212.865 C 376.953 213.113,376.815 213.553,376.815 214.179 C 376.815 215.224,376.696 215.446,376.230 215.267 C 375.999 215.179,375.914 214.705,375.914 213.506 L 375.914 211.866 377.260 211.847 C 378.366 211.832,378.646 211.905,378.836 212.258 M382.173 212.212 C 382.131 212.428,381.896 212.606,381.650 212.606 C 380.951 212.606,380.642 212.915,380.642 213.617 C 380.642 214.264,381.117 214.614,381.800 214.470 C 381.976 214.433,382.105 214.596,382.105 214.856 C 382.105 215.495,380.900 215.588,380.179 215.004 C 379.491 214.447,379.428 212.987,380.063 212.286 C 380.625 211.664,382.292 211.605,382.173 212.212 M385.361 212.253 C 385.861 213.188,385.663 213.618,384.731 213.618 C 384.256 213.618,383.801 213.685,383.720 213.767 C 383.422 214.065,384.094 214.519,384.833 214.519 C 385.632 214.519,385.773 214.700,385.324 215.149 C 383.905 216.567,381.634 213.783,382.988 212.287 C 383.560 211.655,385.029 211.634,385.361 212.253 M337.693 212.763 C 337.312 213.144,337.357 214.220,337.760 214.375 C 338.618 214.704,339.189 213.766,338.623 212.958 C 338.249 212.423,338.070 212.386,337.693 212.763 M345.076 212.718 C 345.076 212.842,345.285 212.943,345.539 212.943 C 345.794 212.943,345.940 212.842,345.864 212.718 C 345.787 212.594,345.579 212.493,345.400 212.493 C 345.222 212.493,345.076 212.594,345.076 212.718 M348.534 212.829 C 348.456 213.032,348.501 213.306,348.633 213.438 C 348.975 213.781,349.625 213.468,349.536 213.003 C 349.436 212.485,348.715 212.360,348.534 212.829 M352.279 212.718 C 352.279 212.842,352.488 212.943,352.743 212.943 C 352.998 212.943,353.143 212.842,353.067 212.718 C 352.990 212.594,352.782 212.493,352.603 212.493 C 352.425 212.493,352.279 212.594,352.279 212.718 M357.474 212.810 C 357.040 213.332,357.255 214.406,357.794 214.406 C 358.168 214.406,358.244 214.256,358.244 213.525 C 358.244 212.577,357.918 212.274,357.474 212.810 M373.326 212.718 C 373.247 212.846,373.440 212.943,373.776 212.943 C 374.112 212.943,374.305 212.846,374.226 212.718 C 374.150 212.594,373.947 212.493,373.776 212.493 C 373.605 212.493,373.402 212.594,373.326 212.718 M383.793 212.718 C 383.793 212.842,384.001 212.943,384.256 212.943 C 384.511 212.943,384.657 212.842,384.581 212.718 C 384.504 212.594,384.296 212.493,384.117 212.493 C 383.939 212.493,383.793 212.594,383.793 212.718 M348.452 215.772 C 348.452 216.022,348.628 216.104,349.054 216.053 C 349.930 215.949,350.008 215.419,349.147 215.419 C 348.667 215.419,348.452 215.528,348.452 215.772 M286.057 218.291 C 286.146 219.527,286.504 219.525,286.594 218.289 C 286.697 216.862,287.315 216.974,287.408 218.436 C 287.487 219.674,287.289 219.912,286.178 219.918 C 285.240 219.922,284.906 219.080,285.171 217.372 C 285.276 216.697,285.995 217.443,286.057 218.291 M291.044 217.713 L 291.503 218.205 291.503 217.694 C 291.503 216.558,292.068 217.411,292.133 218.645 C 292.209 220.078,291.664 220.436,290.953 219.421 L 290.602 218.921 290.602 219.421 C 290.602 219.771,290.467 219.921,290.152 219.921 C 289.758 219.921,289.702 219.771,289.702 218.721 C 289.702 217.079,290.144 216.747,291.044 217.713 M295.734 218.645 C 295.796 219.803,295.759 219.921,295.340 219.921 C 294.933 219.921,294.879 219.781,294.879 218.721 C 294.879 216.700,295.628 216.634,295.734 218.645 M299.288 218.120 C 299.500 218.708,299.576 218.783,299.589 218.418 C 299.609 217.836,300.263 217.112,300.528 217.377 C 300.630 217.479,300.558 218.093,300.368 218.742 C 299.783 220.739,298.714 220.315,298.315 217.929 C 298.140 216.878,298.893 217.026,299.288 218.120 M304.958 217.629 C 305.013 217.796,304.832 217.984,304.542 218.059 L 304.029 218.194 304.533 218.380 C 305.131 218.601,304.964 219.011,304.264 219.043 C 303.799 219.064,303.802 219.074,304.316 219.218 C 305.315 219.497,305.133 219.921,304.014 219.921 L 302.983 219.921 302.983 218.721 C 302.983 218.060,303.055 217.448,303.143 217.359 C 303.408 217.095,304.853 217.309,304.958 217.629 M309.049 217.439 C 309.624 217.747,309.620 219.921,309.043 219.921 C 308.834 219.921,308.587 219.693,308.495 219.415 L 308.328 218.908 308.228 219.415 C 308.004 220.554,307.259 220.021,307.259 218.721 C 307.259 217.184,307.821 216.782,309.049 217.439 M313.520 217.727 C 313.568 217.975,313.456 218.120,313.216 218.120 C 312.913 218.120,312.944 218.208,313.368 218.557 C 313.800 218.911,313.853 219.069,313.652 219.401 C 313.323 219.943,311.761 220.105,311.761 219.597 C 311.761 219.393,311.955 219.246,312.224 219.246 C 312.649 219.246,312.636 219.202,312.075 218.720 L 311.463 218.193 311.964 217.693 C 312.538 217.118,313.408 217.137,313.520 217.727 M316.583 217.357 C 317.173 217.583,317.087 219.921,316.488 219.921 C 316.088 219.921,316.038 219.771,316.038 218.571 C 316.038 217.828,316.081 217.220,316.132 217.220 C 316.184 217.220,316.387 217.282,316.583 217.357 M321.124 217.479 C 321.212 217.622,321.117 217.861,320.912 218.011 C 320.684 218.177,320.540 218.600,320.540 219.102 C 320.540 219.680,320.441 219.921,320.203 219.921 C 319.960 219.921,319.865 219.673,319.865 219.036 C 319.865 218.348,319.764 218.119,319.415 218.008 C 318.954 217.862,318.848 217.637,319.115 217.370 C 319.367 217.117,320.954 217.204,321.124 217.479 M323.919 217.560 C 324.169 217.862,324.232 217.858,324.477 217.524 C 325.075 216.706,325.595 217.347,325.064 218.247 C 324.804 218.687,324.592 219.243,324.592 219.484 C 324.592 219.771,324.438 219.921,324.142 219.921 C 323.807 219.921,323.692 219.771,323.692 219.338 C 323.692 219.017,323.490 218.498,323.244 218.186 C 322.588 217.351,323.242 216.745,323.919 217.560 " stroke="none" fill="#fbfbfb" fill-rule="evenodd"></path><path id="path2" d="M336.326 2.307 C 335.664 3.576,334.832 5.121,334.479 5.740 C 334.126 6.359,333.577 7.372,333.259 7.991 C 331.973 10.494,331.665 11.023,331.270 11.412 C 331.042 11.635,329.400 14.502,327.619 17.783 L 324.382 23.748 330.731 23.808 C 334.222 23.841,337.187 23.826,337.318 23.776 C 337.606 23.665,343.942 12.107,344.066 11.467 C 344.113 11.219,345.418 8.712,346.966 5.896 C 348.513 3.079,349.846 0.600,349.928 0.387 C 350.066 0.027,349.645 0.000,343.804 0.000 L 337.532 0.000 336.326 2.307 M347.552 11.693 C 347.552 11.809,346.134 14.499,344.401 17.670 C 342.667 20.841,341.249 23.531,341.249 23.648 C 341.249 23.776,343.784 23.860,347.646 23.860 L 354.043 23.860 357.412 17.670 L 360.780 11.480 354.166 11.480 C 350.167 11.480,347.552 11.564,347.552 11.693 M363.898 12.593 C 363.678 13.205,363.359 13.821,363.190 13.961 C 363.021 14.102,362.711 14.665,362.502 15.212 C 362.293 15.759,362.029 16.207,361.914 16.207 C 361.800 16.207,361.769 16.308,361.846 16.432 C 361.922 16.556,361.898 16.657,361.793 16.657 C 361.687 16.657,361.412 17.113,361.183 17.670 C 360.953 18.227,360.698 18.683,360.616 18.683 C 360.534 18.683,360.243 19.197,359.969 19.825 C 359.694 20.452,359.369 21.086,359.245 21.231 C 359.121 21.377,358.783 21.978,358.494 22.566 L 357.968 23.635 364.238 23.635 L 370.508 23.635 371.179 22.228 C 371.548 21.455,371.948 20.670,372.068 20.484 C 372.187 20.298,373.268 18.323,374.469 16.095 C 375.670 13.866,376.810 11.916,377.002 11.761 C 377.283 11.535,376.082 11.480,370.825 11.480 L 364.298 11.480 363.898 12.593 M373.508 12.098 C 371.875 12.137,369.140 12.137,367.430 12.099 C 365.721 12.060,367.057 12.029,370.400 12.029 C 373.742 12.029,375.141 12.060,373.508 12.098 M303.076 194.687 C 302.199 195.133,300.751 195.849,299.858 196.279 C 298.103 197.123,295.967 198.872,295.435 199.900 C 294.928 200.881,295.009 200.870,296.351 199.778 C 297.852 198.555,298.823 198.039,301.632 196.970 C 303.718 196.177,303.786 196.128,304.404 194.984 C 305.138 193.622,305.161 193.628,303.076 194.687 M33.356 201.970 C 32.738 203.065,23.231 220.431,21.648 223.357 L 20.946 224.655 27.273 224.596 L 33.601 224.536 37.186 218.008 C 39.158 214.418,41.291 210.518,41.925 209.342 C 42.559 208.165,43.361 206.697,43.708 206.078 C 44.055 205.459,44.618 204.435,44.960 203.802 C 45.303 203.170,45.812 202.233,46.093 201.720 L 46.605 200.788 40.314 200.788 L 34.023 200.788 33.356 201.970 " stroke="none" fill="#d2ba47" fill-rule="evenodd"></path><path id="path3" d="M334.167 5.636 C 332.468 8.744,331.129 11.339,331.193 11.403 C 331.358 11.568,331.777 10.876,333.259 7.991 C 333.577 7.372,334.112 6.384,334.448 5.797 C 335.736 3.543,337.449 0.176,337.356 0.083 C 337.302 0.029,335.867 2.528,334.167 5.636 M348.227 3.548 C 347.175 5.493,345.776 8.074,345.119 9.282 C 344.462 10.491,344.015 11.480,344.126 11.480 C 344.238 11.480,344.972 10.290,345.757 8.835 C 346.542 7.380,347.381 5.836,347.621 5.402 C 349.233 2.497,350.484 0.001,350.327 0.005 C 350.224 0.008,349.280 1.602,348.227 3.548 M350.859 5.630 C 349.164 8.726,347.777 11.309,347.777 11.370 C 347.777 11.430,350.740 11.478,354.361 11.475 L 360.945 11.471 362.913 7.817 C 363.996 5.808,365.393 3.227,366.018 2.082 L 367.154 0.000 360.548 0.000 L 353.942 0.000 350.859 5.630 M369.880 1.182 C 369.514 1.832,368.330 3.984,367.248 5.965 C 366.167 7.946,365.035 9.999,364.734 10.527 L 364.186 11.487 370.754 11.427 L 377.322 11.367 379.608 7.203 C 380.866 4.913,382.269 2.355,382.727 1.519 L 383.559 0.000 377.052 0.000 L 370.545 0.000 369.880 1.182 M390.042 12.405 C 389.702 12.887,389.469 13.281,389.524 13.281 C 389.685 13.281,390.842 11.700,390.746 11.611 C 390.698 11.566,390.381 11.924,390.042 12.405 M388.745 14.181 C 388.481 14.553,388.315 14.856,388.377 14.856 C 388.439 14.856,388.706 14.553,388.970 14.181 C 389.235 13.810,389.400 13.506,389.338 13.506 C 389.277 13.506,389.010 13.810,388.745 14.181 M387.394 16.038 C 387.062 16.491,387.008 16.648,387.251 16.451 C 387.620 16.151,388.178 15.307,388.007 15.307 C 387.965 15.307,387.688 15.636,387.394 16.038 M385.144 19.133 C 384.879 19.505,384.713 19.809,384.775 19.809 C 384.837 19.809,385.104 19.505,385.369 19.133 C 385.633 18.762,385.799 18.458,385.737 18.458 C 385.675 18.458,385.408 18.762,385.144 19.133 M382.217 23.185 C 381.953 23.557,381.787 23.860,381.849 23.860 C 381.911 23.860,382.178 23.557,382.442 23.185 C 382.707 22.814,382.873 22.510,382.811 22.510 C 382.749 22.510,382.482 22.814,382.217 23.185 M304.333 193.806 C 304.024 194.046,303.034 194.565,302.133 194.959 C 301.233 195.353,300.541 195.720,300.596 195.775 C 300.651 195.830,301.590 195.440,302.683 194.910 C 303.776 194.379,304.760 193.902,304.869 193.849 C 304.978 193.796,304.776 194.296,304.419 194.961 C 303.846 196.030,303.633 196.219,302.582 196.596 C 301.071 197.138,301.181 197.315,302.721 196.818 C 303.787 196.474,303.941 196.331,304.669 195.007 C 305.684 193.159,305.592 192.830,304.333 193.806 M298.207 196.934 C 297.281 197.538,296.284 198.374,295.991 198.791 C 295.549 199.421,295.683 199.347,296.776 198.356 C 297.500 197.699,298.586 196.913,299.187 196.608 C 300.231 196.079,300.514 195.836,300.085 195.836 C 299.977 195.836,299.132 196.330,298.207 196.934 M299.253 197.943 C 298.385 198.359,297.097 199.170,296.390 199.746 C 295.055 200.833,294.942 200.865,295.344 200.041 C 295.549 199.622,295.517 199.632,295.124 200.113 C 294.698 200.634,294.505 201.238,294.765 201.238 C 294.827 201.238,295.510 200.725,296.285 200.097 C 297.059 199.470,298.503 198.562,299.494 198.080 C 300.484 197.598,301.190 197.200,301.063 197.195 C 300.936 197.190,300.121 197.527,299.253 197.943 M33.461 201.069 C 33.289 201.348,32.716 202.386,32.189 203.376 C 30.924 205.753,30.554 206.434,25.124 216.365 C 22.572 221.032,20.484 224.907,20.484 224.975 C 20.484 225.297,33.485 225.098,33.756 224.771 C 34.156 224.289,46.820 201.031,46.820 200.778 C 46.820 200.237,33.801 200.520,33.461 201.069 M48.876 203.433 C 39.876 219.843,37.213 224.786,37.296 224.930 C 37.474 225.239,49.844 225.132,50.242 224.817 C 50.530 224.589,54.292 217.805,60.882 205.627 C 61.284 204.885,62.033 203.509,62.546 202.569 C 63.058 201.630,63.478 200.795,63.478 200.712 C 63.478 200.630,60.547 200.563,56.964 200.563 L 50.450 200.563 48.876 203.433 M66.771 201.069 C 66.436 201.601,54.809 222.876,54.161 224.142 L 53.787 224.873 60.285 224.873 L 66.783 224.873 72.151 215.025 C 75.104 209.609,77.816 204.620,78.179 203.939 C 78.542 203.258,79.077 202.284,79.367 201.774 C 80.087 200.509,80.356 200.563,73.350 200.563 C 67.102 200.563,67.089 200.564,66.771 201.069 M46.093 201.720 C 45.812 202.233,45.303 203.170,44.960 203.802 C 44.618 204.435,44.055 205.459,43.708 206.078 C 43.361 206.697,42.559 208.165,41.925 209.342 C 41.291 210.518,39.158 214.418,37.186 218.008 L 33.601 224.536 27.273 224.596 L 20.946 224.655 21.648 223.357 C 23.231 220.431,32.738 203.065,33.356 201.970 L 34.023 200.788 40.314 200.788 L 46.605 200.788 46.093 201.720 M378.898 213.731 C 378.900 214.226,378.946 214.402,379.000 214.122 C 379.054 213.842,379.052 213.437,378.995 213.222 C 378.939 213.007,378.895 213.236,378.898 213.731 " stroke="none" fill="#fbe798" fill-rule="evenodd"></path><path id="path4" d="M385.200 11.649 C 387.893 11.685,390.096 11.797,390.096 11.898 C 390.096 11.999,389.756 12.529,389.340 13.075 C 388.440 14.259,386.245 17.261,383.344 21.272 C 379.296 26.870,378.497 27.972,377.421 29.428 C 376.077 31.248,375.452 32.231,375.953 31.739 C 376.385 31.313,390.546 11.777,390.546 11.606 C 390.546 11.537,388.241 11.503,385.425 11.532 L 380.304 11.583 385.200 11.649 M93.810 32.133 C 145.467 32.164,229.997 32.164,281.654 32.133 C 333.312 32.102,291.047 32.076,187.732 32.076 C 84.418 32.076,42.153 32.102,93.810 32.133 M302.082 198.111 C 301.797 198.316,301.806 198.334,302.138 198.228 C 302.635 198.068,302.631 198.136,302.083 199.210 C 301.653 200.054,300.737 200.557,299.625 200.561 C 299.449 200.562,299.368 200.625,299.444 200.701 C 299.946 201.203,301.765 200.279,302.350 199.226 C 303.045 197.974,302.931 197.501,302.082 198.111 M299.494 198.975 C 298.307 199.536,298.535 199.548,299.944 198.997 C 300.563 198.756,300.917 198.556,300.732 198.553 C 300.546 198.551,299.989 198.740,299.494 198.975 M296.357 200.600 C 295.345 201.270,293.528 203.283,293.528 203.734 C 293.528 204.091,293.894 203.957,294.338 203.437 C 294.687 203.027,294.693 202.991,294.373 203.239 C 294.156 203.407,293.979 203.453,293.979 203.342 C 293.979 203.010,296.213 200.808,296.922 200.441 C 297.284 200.254,297.580 200.053,297.580 199.994 C 297.580 199.810,297.460 199.869,296.357 200.600 M297.186 201.457 C 296.660 201.696,296.230 201.943,296.230 202.007 C 296.230 202.121,298.266 201.302,298.457 201.111 C 298.681 200.887,298.082 201.050,297.186 201.457 M299.469 202.075 C 299.797 202.159,299.617 202.336,298.688 202.844 C 296.337 204.129,296.455 203.797,296.455 209.171 C 296.455 211.982,296.548 214.048,296.688 214.309 C 297.000 214.891,297.509 214.859,297.810 214.237 C 298.042 213.757,298.037 213.753,297.712 214.158 C 296.860 215.220,296.680 214.357,296.680 209.228 L 296.680 204.443 297.437 203.865 C 297.853 203.548,298.664 203.060,299.238 202.781 C 300.419 202.207,300.573 201.901,299.662 201.939 C 299.225 201.958,299.168 201.998,299.469 202.075 M296.455 202.926 C 295.126 203.638,295.413 203.639,296.939 202.928 C 297.601 202.620,297.991 202.372,297.805 202.376 C 297.620 202.380,297.012 202.628,296.455 202.926 M303.208 203.590 C 303.208 203.887,303.085 203.960,302.735 203.868 C 302.053 203.690,301.193 204.154,301.034 204.786 C 300.869 205.446,301.626 206.327,302.176 206.116 C 302.564 205.967,302.672 205.290,302.307 205.290 C 302.183 205.290,302.082 205.189,302.082 205.065 C 302.082 204.941,302.335 204.840,302.645 204.840 C 303.151 204.840,303.208 204.930,303.208 205.740 L 303.208 206.640 302.245 206.640 C 300.537 206.640,299.735 205.381,300.514 203.924 C 300.643 203.685,300.696 203.489,300.633 203.489 C 300.445 203.489,299.831 204.787,299.831 205.183 C 299.831 206.034,301.101 206.895,302.246 206.822 L 303.320 206.753 303.389 205.684 L 303.457 204.615 302.657 204.615 C 301.844 204.615,301.456 205.334,302.138 205.578 C 302.293 205.633,302.339 205.765,302.240 205.870 C 302.000 206.127,301.313 205.675,301.219 205.199 C 301.101 204.598,301.619 204.164,302.454 204.164 C 303.179 204.164,303.698 203.679,303.348 203.329 C 303.271 203.252,303.208 203.370,303.208 203.590 M305.008 205.065 L 305.008 206.866 306.359 206.866 C 307.560 206.866,307.710 206.815,307.710 206.415 C 307.710 206.067,307.560 205.965,307.048 205.965 C 306.122 205.965,305.967 205.559,306.859 205.473 C 307.391 205.422,307.612 205.278,307.660 204.952 C 307.721 204.541,307.705 204.536,307.482 204.896 C 307.347 205.113,306.995 205.290,306.699 205.290 C 306.403 205.290,306.091 205.402,306.006 205.540 C 305.813 205.852,306.308 206.182,306.978 206.187 C 307.257 206.189,307.485 206.292,307.485 206.415 C 307.485 206.539,306.970 206.640,306.341 206.640 L 305.198 206.640 305.272 204.952 C 305.313 204.023,305.270 203.263,305.177 203.263 C 305.084 203.264,305.008 204.074,305.008 205.065 M307.316 203.545 C 307.348 203.706,307.196 203.797,306.961 203.757 C 306.484 203.675,305.856 204.123,306.037 204.415 C 306.105 204.525,306.433 204.603,306.766 204.588 L 307.372 204.561 306.697 204.389 C 306.180 204.258,306.136 204.211,306.509 204.191 C 307.450 204.140,308.371 203.264,307.485 203.264 C 307.361 203.264,307.285 203.391,307.316 203.545 M309.186 203.764 C 308.249 205.101,309.110 206.866,310.698 206.866 C 311.924 206.866,313.011 205.423,312.488 204.489 C 312.361 204.263,312.302 204.406,312.302 204.937 C 312.302 206.446,310.403 207.301,309.433 206.229 C 308.910 205.651,308.953 204.272,309.510 203.714 C 309.758 203.467,309.865 203.264,309.748 203.264 C 309.631 203.264,309.378 203.489,309.186 203.764 M313.656 203.569 C 313.263 204.594,313.676 206.753,314.278 206.823 C 314.812 206.884,314.893 206.805,314.971 206.147 L 315.059 205.402 315.373 206.134 C 315.596 206.654,315.835 206.866,316.200 206.866 C 316.776 206.866,316.891 206.267,316.468 205.476 C 316.290 205.144,316.290 204.948,316.468 204.770 C 316.827 204.411,316.768 203.815,316.340 203.460 C 315.998 203.178,315.993 203.194,316.281 203.658 C 316.535 204.065,316.542 204.251,316.320 204.607 C 316.124 204.921,316.108 205.220,316.266 205.635 C 316.722 206.834,316.178 207.081,315.542 205.964 C 315.049 205.096,314.688 205.104,314.688 205.982 C 314.688 206.520,314.600 206.656,314.294 206.597 C 313.962 206.532,313.900 206.263,313.900 204.892 C 313.900 203.231,313.863 203.030,313.656 203.569 M318.328 203.785 C 317.063 205.132,318.144 206.936,320.148 206.821 L 321.328 206.753 321.328 205.740 C 321.328 204.738,321.320 204.727,320.540 204.698 L 319.752 204.668 320.484 204.768 C 321.169 204.862,321.216 204.925,321.216 205.754 L 321.216 206.640 320.090 206.640 C 318.151 206.640,317.260 204.830,318.657 203.730 C 318.983 203.474,319.153 203.264,319.034 203.264 C 318.915 203.264,318.598 203.498,318.328 203.785 M322.791 205.065 L 322.791 206.866 324.142 206.866 C 325.342 206.866,325.492 206.815,325.492 206.415 C 325.492 206.065,325.342 205.965,324.817 205.965 C 323.972 205.965,323.925 205.570,324.759 205.474 C 325.173 205.426,325.398 205.254,325.442 204.952 C 325.503 204.541,325.488 204.536,325.264 204.896 C 325.130 205.113,324.764 205.290,324.452 205.290 C 323.644 205.290,323.820 206.053,324.650 206.149 C 325.716 206.272,325.321 206.640,324.124 206.640 L 322.981 206.640 323.055 204.952 C 323.096 204.023,323.053 203.263,322.960 203.263 C 322.867 203.264,322.791 204.074,322.791 205.065 M325.098 203.531 C 325.129 203.678,324.903 203.805,324.596 203.813 C 324.251 203.821,324.008 203.977,323.961 204.221 C 323.901 204.525,324.029 204.609,324.519 204.592 L 325.155 204.570 324.592 204.400 C 324.031 204.231,324.032 204.230,324.703 204.141 C 325.334 204.057,325.860 203.264,325.284 203.264 C 325.151 203.264,325.068 203.384,325.098 203.531 M284.750 203.734 C 284.750 203.869,284.951 204.148,285.197 204.353 C 285.904 204.944,285.922 213.638,285.217 214.388 C 284.960 214.662,284.750 214.958,284.750 215.048 C 284.750 215.137,285.053 214.864,285.425 214.441 L 286.100 213.672 286.100 209.385 C 286.100 205.103,286.100 205.099,285.517 204.407 L 284.935 203.714 286.624 203.714 C 288.201 203.714,288.346 203.755,288.793 204.333 L 289.273 204.952 288.919 204.221 L 288.565 203.489 286.657 203.489 C 285.431 203.489,284.750 203.577,284.750 203.734 M294.541 204.071 L 293.866 204.652 294.598 204.168 C 295.000 203.901,295.329 203.640,295.329 203.586 C 295.329 203.418,295.234 203.476,294.541 204.071 M310.204 204.146 C 309.499 204.851,309.793 206.190,310.652 206.190 C 310.767 206.190,310.658 205.988,310.411 205.740 C 309.866 205.196,309.840 204.767,310.322 204.285 C 310.890 203.717,311.390 204.266,311.227 205.279 C 311.138 205.833,311.165 205.974,311.314 205.740 C 311.979 204.698,311.023 203.327,310.204 204.146 M319.640 204.004 C 319.059 204.297,318.742 205.383,319.127 205.767 C 319.240 205.880,319.286 205.640,319.235 205.204 C 319.131 204.309,319.392 204.087,320.519 204.111 C 321.157 204.124,321.233 204.087,320.878 203.937 C 320.275 203.681,320.283 203.680,319.640 204.004 M314.731 204.333 C 314.772 204.550,314.956 204.727,315.138 204.727 C 315.320 204.727,315.503 204.550,315.545 204.333 C 315.598 204.057,315.477 203.939,315.138 203.939 C 314.799 203.939,314.677 204.057,314.731 204.333 M293.252 205.008 C 292.862 205.452,291.947 207.203,291.963 207.476 C 291.969 207.573,292.234 207.147,292.552 206.528 C 292.870 205.909,293.286 205.225,293.477 205.008 C 293.667 204.792,293.773 204.615,293.711 204.615 C 293.649 204.615,293.442 204.792,293.252 205.008 M289.814 206.190 C 290.128 206.809,290.435 207.316,290.497 207.316 C 290.559 207.316,290.353 206.809,290.039 206.190 C 289.726 205.571,289.418 205.065,289.357 205.065 C 289.295 205.065,289.501 205.571,289.814 206.190 M319.865 205.242 C 319.865 205.392,319.966 205.515,320.090 205.515 C 320.472 205.515,320.338 205.926,319.921 206.035 C 319.566 206.128,319.565 206.141,319.908 206.164 C 320.471 206.203,320.646 205.749,320.229 205.333 C 319.993 205.097,319.865 205.065,319.865 205.242 M293.182 207.710 L 292.783 208.329 293.268 207.900 L 293.754 207.471 293.754 210.735 C 293.754 213.713,293.714 214.035,293.303 214.406 C 293.056 214.630,292.853 214.907,292.853 215.021 C 292.853 215.135,293.106 214.928,293.416 214.560 C 293.962 213.911,293.979 213.789,293.979 210.491 C 293.979 207.004,293.873 206.635,293.182 207.710 M287.451 210.571 C 287.451 213.745,287.470 213.884,287.990 214.403 C 288.286 214.699,288.472 214.999,288.402 215.068 C 288.333 215.137,288.394 215.194,288.539 215.194 C 288.956 215.194,288.846 214.865,288.239 214.294 C 287.690 213.778,287.676 213.687,287.678 210.597 L 287.680 207.428 288.358 208.610 C 288.731 209.260,289.093 209.792,289.162 209.792 C 289.370 209.792,287.950 207.445,287.690 207.358 C 287.528 207.304,287.451 208.344,287.451 210.571 M290.957 208.203 C 291.326 208.963,291.974 208.759,291.945 207.892 C 291.940 207.761,291.792 207.907,291.615 208.216 C 291.438 208.526,291.290 208.672,291.285 208.540 C 291.281 208.409,291.121 208.106,290.929 207.865 C 290.645 207.510,290.651 207.573,290.957 208.203 M312.966 207.764 C 312.700 207.872,312.411 208.076,312.322 208.219 C 312.232 208.365,312.464 208.322,312.851 208.122 C 314.682 207.175,316.912 208.068,317.864 210.129 C 318.092 210.625,318.282 210.898,318.284 210.737 C 318.317 208.787,315.012 206.939,312.966 207.764 M299.859 208.927 C 299.594 209.565,299.414 210.125,299.459 210.170 C 299.505 210.215,299.758 209.732,300.022 209.096 C 300.471 208.017,300.548 207.946,301.180 208.039 C 301.552 208.093,301.857 208.054,301.857 207.952 C 301.857 207.095,300.306 207.851,299.859 208.927 M305.476 208.349 C 305.095 208.669,304.787 209.100,304.792 209.305 C 304.798 209.549,304.920 209.460,305.143 209.050 C 305.846 207.752,310.339 207.457,309.717 208.749 C 309.492 209.215,309.496 209.216,309.836 208.792 C 310.339 208.164,310.284 208.066,309.342 207.910 C 307.439 207.596,306.204 207.736,305.476 208.349 M318.064 207.963 C 318.064 208.072,318.216 208.287,318.402 208.441 C 318.922 208.873,318.889 213.981,318.362 214.563 C 318.063 214.893,318.042 215.037,318.263 215.256 C 318.483 215.474,318.513 215.457,318.405 215.174 C 318.330 214.977,318.425 214.686,318.617 214.527 C 319.143 214.091,319.122 208.988,318.592 208.403 C 318.236 208.009,318.270 207.991,319.372 207.991 L 320.525 207.991 321.939 209.779 C 322.717 210.763,323.430 211.573,323.523 211.580 C 323.859 211.605,323.706 208.958,323.354 208.666 C 322.751 208.166,322.993 207.991,324.289 207.991 C 325.508 207.991,325.546 208.008,325.190 208.403 C 324.877 208.748,324.817 209.370,324.817 212.269 L 324.817 215.723 324.198 215.177 L 323.579 214.631 324.125 215.250 C 324.989 216.231,325.042 216.066,325.042 212.415 C 325.042 209.261,325.081 208.926,325.487 208.559 C 326.160 207.949,325.846 207.766,324.129 207.766 C 322.427 207.766,322.338 207.831,323.030 208.568 C 323.394 208.955,323.478 209.298,323.424 210.158 L 323.354 211.255 322.010 209.510 L 320.667 207.766 319.366 207.766 C 318.650 207.766,318.064 207.855,318.064 207.963 M292.041 209.475 C 291.389 210.587,290.391 212.895,290.382 213.310 C 290.377 213.542,289.702 214.251,289.702 214.024 C 289.702 213.969,289.860 213.458,290.054 212.889 C 290.388 211.910,290.104 210.467,289.578 210.467 C 289.516 210.467,289.624 210.774,289.818 211.149 C 290.141 211.773,290.138 211.936,289.783 213.060 C 288.995 215.562,290.020 214.734,291.078 212.014 C 291.404 211.176,291.941 210.029,292.272 209.466 C 292.602 208.902,292.821 208.441,292.760 208.441 C 292.698 208.441,292.374 208.906,292.041 209.475 M302.005 208.890 C 302.084 209.199,302.336 209.858,302.565 210.354 C 302.795 210.849,302.921 211.002,302.846 210.692 C 302.770 210.383,302.518 209.724,302.285 209.229 C 302.053 208.734,301.927 208.581,302.005 208.890 M311.328 209.034 C 311.071 209.361,310.861 209.732,310.861 209.860 C 310.861 210.124,310.839 210.148,311.512 209.173 C 312.118 208.296,311.986 208.197,311.328 209.034 M306.794 209.023 C 306.366 209.539,306.737 210.011,308.178 210.783 C 308.849 211.142,309.317 211.348,309.218 211.241 C 309.120 211.134,308.562 210.789,307.980 210.474 C 307.263 210.087,306.922 209.758,306.922 209.453 C 306.922 208.831,307.743 208.757,308.263 209.332 C 308.713 209.828,309.176 209.925,309.396 209.569 C 309.476 209.440,309.382 209.405,309.170 209.486 C 308.942 209.574,308.682 209.448,308.470 209.146 C 308.075 208.581,307.213 208.518,306.794 209.023 M313.533 209.040 C 313.253 209.379,313.268 209.387,313.697 209.120 C 314.321 208.731,315.227 208.977,315.536 209.618 C 315.672 209.899,315.790 210.003,315.798 209.848 C 315.847 208.934,314.128 208.320,313.533 209.040 M304.792 210.361 C 304.776 210.778,305.473 211.588,306.148 211.937 C 306.511 212.125,306.809 212.229,306.809 212.167 C 306.809 212.105,306.508 211.899,306.140 211.708 C 305.771 211.518,305.320 211.085,305.136 210.746 C 304.952 210.407,304.797 210.234,304.792 210.361 M315.852 211.409 C 315.783 213.657,315.134 214.523,313.858 214.067 C 313.267 213.856,313.254 213.864,313.661 214.180 C 314.965 215.191,316.195 213.576,315.980 211.137 C 315.897 210.188,315.890 210.204,315.852 211.409 M340.574 210.444 C 340.574 210.573,340.722 210.621,340.904 210.551 C 341.178 210.446,341.246 210.820,341.309 212.753 L 341.385 215.082 341.373 212.721 C 341.363 210.656,341.312 210.350,340.968 210.284 C 340.751 210.243,340.574 210.315,340.574 210.444 M342.375 210.444 C 342.375 210.573,342.527 210.620,342.712 210.548 C 343.000 210.438,343.050 210.779,343.050 212.831 C 343.050 215.035,343.016 215.229,342.656 215.092 C 342.340 214.972,342.318 214.999,342.544 215.226 C 343.103 215.789,343.293 215.088,343.227 212.701 C 343.171 210.681,343.109 210.349,342.769 210.284 C 342.552 210.243,342.375 210.315,342.375 210.444 M360.749 210.583 C 360.246 211.086,360.285 211.301,360.794 210.840 C 361.235 210.441,362.183 210.330,362.183 210.677 C 362.183 210.792,361.957 210.918,361.679 210.958 C 361.050 211.048,360.877 211.764,361.435 211.971 C 361.661 212.054,361.920 212.231,362.011 212.364 C 362.111 212.510,362.178 212.449,362.180 212.212 C 362.182 211.967,362.013 211.818,361.733 211.818 C 361.114 211.818,361.163 211.191,361.790 211.102 C 362.068 211.062,362.296 210.878,362.296 210.692 C 362.296 210.215,361.194 210.138,360.749 210.583 M370.587 210.597 C 370.370 211.162,371.034 211.711,371.401 211.269 C 371.559 211.079,371.629 210.770,371.557 210.582 C 371.386 210.136,370.760 210.145,370.587 210.597 M298.611 211.948 C 298.281 212.773,298.048 213.486,298.095 213.533 C 298.142 213.580,298.449 212.941,298.777 212.114 C 299.105 211.287,299.337 210.573,299.293 210.529 C 299.248 210.484,298.941 211.123,298.611 211.948 M334.384 210.628 C 333.866 210.753,332.921 211.567,332.921 211.887 C 332.921 212.006,333.131 211.837,333.387 211.510 C 333.644 211.184,334.024 210.916,334.231 210.914 C 334.439 210.912,334.761 210.812,334.947 210.692 C 335.300 210.464,335.139 210.445,334.384 210.628 M365.560 210.615 C 365.746 210.677,366.036 210.772,366.204 210.825 C 366.463 210.907,366.463 210.984,366.204 211.314 C 365.926 211.668,365.935 211.676,366.294 211.394 C 366.787 211.007,366.428 210.458,365.701 210.485 C 365.388 210.496,365.339 210.542,365.560 210.615 M371.300 210.880 C 371.300 211.287,370.859 211.213,370.772 210.791 C 370.723 210.556,370.808 210.453,370.997 210.516 C 371.164 210.572,371.300 210.735,371.300 210.880 M300.431 210.842 C 300.349 210.925,300.283 211.102,300.285 211.236 C 300.287 211.370,300.385 211.328,300.503 211.142 C 300.672 210.877,300.750 210.962,300.866 211.536 C 300.947 211.939,301.102 212.268,301.210 212.268 C 301.483 212.268,301.459 212.121,301.063 211.356 C 300.694 210.642,300.660 210.614,300.431 210.842 M320.098 212.437 C 320.103 213.806,320.196 214.290,320.528 214.688 C 321.122 215.400,321.349 215.322,320.782 214.601 C 320.407 214.125,320.316 213.691,320.321 212.406 L 320.326 210.805 321.390 212.037 C 322.628 213.472,323.737 214.636,323.229 213.967 C 322.235 212.660,320.471 210.692,320.293 210.692 C 320.181 210.692,320.093 211.477,320.098 212.437 M335.566 210.841 C 336.114 211.062,335.836 211.367,335.087 211.367 C 334.626 211.367,334.209 211.523,334.028 211.761 C 333.775 212.097,333.777 212.113,334.046 211.874 C 334.219 211.719,334.746 211.593,335.217 211.593 C 335.922 211.593,336.072 211.514,336.072 211.142 C 336.072 210.857,335.928 210.699,335.678 210.710 C 335.443 210.721,335.397 210.773,335.566 210.841 M309.830 211.811 C 310.322 212.582,310.275 213.661,309.714 214.432 L 309.241 215.082 309.826 214.450 C 310.554 213.664,310.604 212.536,309.943 211.786 L 309.474 211.255 309.830 211.811 M312.815 212.155 C 312.888 212.651,313.031 213.208,313.133 213.393 C 313.239 213.587,313.261 213.347,313.184 212.831 C 313.111 212.335,312.968 211.778,312.866 211.593 C 312.760 211.399,312.738 211.639,312.815 212.155 M364.015 211.858 C 363.998 212.189,364.143 212.620,364.338 212.815 C 364.821 213.297,365.040 213.264,364.602 212.774 C 364.409 212.558,364.204 212.127,364.148 211.818 L 364.046 211.255 364.015 211.858 M365.035 211.518 C 364.680 211.873,364.946 212.290,365.809 212.730 C 366.317 212.989,366.673 213.106,366.601 212.989 C 366.529 212.872,366.156 212.647,365.773 212.488 C 365.264 212.277,365.105 212.086,365.184 211.783 C 365.301 211.336,365.270 211.282,365.035 211.518 M359.989 211.742 C 359.587 211.904,359.641 212.419,360.077 212.587 C 360.367 212.698,360.392 212.663,360.195 212.425 C 360.009 212.201,360.012 212.053,360.208 211.857 C 360.487 211.578,360.447 211.557,359.989 211.742 M303.340 212.268 C 303.422 212.577,303.632 213.084,303.807 213.393 L 304.124 213.956 303.976 213.393 C 303.894 213.084,303.684 212.577,303.509 212.268 L 303.191 211.705 303.340 212.268 M336.944 212.212 C 336.663 212.569,336.671 212.577,337.031 212.295 C 337.296 212.087,337.768 212.023,338.468 212.102 C 339.108 212.174,339.389 212.143,339.197 212.022 C 338.647 211.674,337.275 211.789,336.944 212.212 M344.309 212.306 C 343.922 212.859,343.835 214.213,344.155 214.718 C 344.277 214.911,344.309 214.643,344.238 214.019 C 344.075 212.573,344.424 212.043,345.540 212.043 C 346.466 212.043,347.105 212.805,346.733 213.469 C 346.622 213.667,346.654 213.668,346.867 213.472 C 347.091 213.265,347.086 213.083,346.842 212.571 C 346.419 211.685,344.859 211.521,344.309 212.306 M348.149 211.986 C 348.091 212.079,348.591 212.121,349.260 212.078 L 350.475 212.001 350.367 212.754 C 350.274 213.402,350.287 213.428,350.459 212.943 C 350.833 211.888,350.772 211.818,349.479 211.818 C 348.805 211.818,348.207 211.894,348.149 211.986 M351.575 212.212 C 351.296 212.568,351.304 212.576,351.656 212.300 C 351.887 212.119,352.406 212.029,352.931 212.079 C 353.418 212.126,353.769 212.086,353.710 211.991 C 353.496 211.644,351.890 211.810,351.575 212.212 M356.572 212.411 C 355.977 213.168,355.977 214.098,356.574 214.775 L 357.042 215.307 356.687 214.750 C 355.611 213.067,357.581 211.030,359.032 212.324 C 359.301 212.564,359.304 212.547,359.050 212.212 C 358.566 211.572,357.142 211.686,356.572 212.411 M368.188 211.978 C 368.125 212.080,368.471 212.126,368.955 212.080 C 369.772 212.002,370.161 212.295,369.606 212.570 C 369.479 212.633,369.505 212.658,369.662 212.626 C 369.820 212.594,369.949 212.424,369.949 212.249 C 369.949 211.898,368.386 211.658,368.188 211.978 M371.028 211.962 C 371.546 212.113,371.519 215.127,371.002 215.020 C 370.838 214.986,370.765 215.057,370.840 215.179 C 370.915 215.300,371.130 215.341,371.316 215.269 C 371.894 215.048,371.673 211.950,371.075 211.889 C 370.706 211.852,370.698 211.865,371.028 211.962 M372.685 212.229 C 372.481 212.456,372.313 212.731,372.313 212.842 C 372.313 212.953,372.471 212.818,372.663 212.543 C 373.354 211.557,374.982 211.977,375.045 213.157 C 375.074 213.712,375.079 213.713,375.175 213.206 C 375.399 212.033,373.527 211.299,372.685 212.229 M375.959 213.586 L 376.004 215.307 376.081 213.704 L 376.158 212.102 377.387 212.073 L 378.616 212.045 378.649 213.282 C 378.668 213.962,378.693 214.637,378.706 214.781 C 378.718 214.926,378.602 215.086,378.447 215.138 C 378.244 215.205,378.165 214.883,378.165 213.988 C 378.165 213.304,378.089 212.697,377.997 212.640 C 377.762 212.494,377.934 215.034,378.176 215.286 C 378.609 215.738,378.954 214.994,378.927 213.664 C 378.892 211.896,378.827 211.825,377.255 211.847 L 375.914 211.866 375.959 213.586 M380.114 212.229 C 379.909 212.456,379.741 212.731,379.741 212.842 C 379.741 212.953,379.899 212.818,380.092 212.543 C 380.338 212.191,380.671 212.043,381.217 212.043 C 381.957 212.043,382.251 212.327,381.761 212.570 C 381.634 212.633,381.660 212.658,381.818 212.626 C 381.976 212.594,382.137 212.399,382.177 212.193 C 382.284 211.643,380.618 211.672,380.114 212.229 M383.040 212.229 C 382.835 212.456,382.669 212.785,382.671 212.961 C 382.673 213.137,382.802 213.028,382.958 212.718 C 383.164 212.309,383.486 212.118,384.136 212.018 L 385.031 211.882 384.222 211.850 C 383.692 211.829,383.284 211.960,383.040 212.229 M317.964 212.638 C 317.550 214.286,316.301 215.173,314.305 215.235 L 312.999 215.275 314.110 215.361 C 315.579 215.475,316.102 215.322,317.033 214.504 C 317.742 213.883,318.490 212.393,318.226 212.130 C 318.167 212.070,318.049 212.299,317.964 212.638 M307.034 212.369 C 307.034 212.431,307.338 212.639,307.710 212.831 C 308.081 213.023,308.385 213.129,308.385 213.067 C 308.385 213.005,308.081 212.798,307.710 212.606 C 307.338 212.413,307.034 212.307,307.034 212.369 M332.726 213.087 C 332.706 213.695,332.833 214.168,333.089 214.448 C 333.306 214.684,333.385 214.735,333.266 214.560 C 333.146 214.386,332.982 213.773,332.902 213.199 L 332.756 212.155 332.726 213.087 M367.497 212.624 C 367.310 213.112,367.332 214.350,367.533 214.666 C 367.624 214.809,367.698 214.328,367.698 213.597 C 367.698 212.134,367.694 212.112,367.497 212.624 M339.586 213.056 C 339.771 213.883,339.900 214.063,339.895 213.487 C 339.893 213.250,339.789 212.904,339.663 212.718 C 339.496 212.471,339.476 212.563,339.586 213.056 M345.862 212.716 C 345.999 212.936,345.896 212.980,345.447 212.894 C 345.119 212.832,344.851 212.868,344.851 212.974 C 344.851 213.081,345.155 213.168,345.526 213.168 C 346.210 213.168,346.417 212.878,345.942 212.584 C 345.770 212.478,345.743 212.523,345.862 212.716 M352.072 212.774 C 352.060 213.047,352.223 213.168,352.603 213.168 C 353.227 213.168,353.544 212.830,353.148 212.586 C 352.984 212.485,352.945 212.521,353.045 212.683 C 353.146 212.846,353.040 212.943,352.761 212.943 C 352.517 212.943,352.266 212.817,352.203 212.662 C 352.135 212.494,352.082 212.539,352.072 212.774 M357.103 213.038 C 356.812 214.196,357.511 215.128,358.225 214.535 C 358.586 214.235,358.725 212.833,358.413 212.640 C 358.320 212.582,358.244 212.956,358.244 213.471 C 358.244 214.256,358.172 214.406,357.794 214.406 C 357.259 214.406,357.039 213.334,357.468 212.817 C 357.653 212.593,357.660 212.493,357.488 212.493 C 357.352 212.493,357.178 212.738,357.103 213.038 M361.101 213.811 C 361.063 215.072,361.011 215.225,360.664 215.092 C 360.348 214.972,360.326 214.999,360.551 215.226 C 361.045 215.723,361.313 215.120,361.225 213.708 L 361.143 212.380 361.101 213.811 M380.687 212.763 C 380.538 212.912,380.430 213.292,380.447 213.607 L 380.478 214.181 380.581 213.618 C 380.638 213.309,380.789 212.929,380.916 212.774 C 381.211 212.415,381.043 212.407,380.687 212.763 M383.571 212.774 C 383.569 213.061,383.736 213.161,384.187 213.142 C 384.661 213.122,384.701 213.090,384.356 213.004 C 384.108 212.942,383.831 212.776,383.740 212.636 C 383.635 212.474,383.573 212.524,383.571 212.774 M359.257 213.463 C 359.257 214.444,358.845 214.967,357.896 215.190 C 357.170 215.361,357.160 215.375,357.748 215.396 C 358.650 215.429,359.482 214.528,359.482 213.516 C 359.482 213.077,359.432 212.718,359.370 212.718 C 359.308 212.718,359.257 213.053,359.257 213.463 M299.944 213.282 C 300.458 213.462,301.817 213.511,301.715 213.346 C 301.655 213.248,301.181 213.176,300.662 213.186 C 300.143 213.196,299.820 213.239,299.944 213.282 M305.113 213.859 C 304.801 214.463,304.707 214.513,304.375 214.253 C 304.034 213.986,304.027 213.996,304.304 214.350 C 304.735 214.899,304.912 214.846,305.234 214.069 C 305.573 213.248,305.684 213.237,306.359 213.956 C 306.976 214.612,307.754 214.685,308.178 214.125 C 308.431 213.790,308.429 213.773,308.160 214.012 C 307.662 214.457,306.934 214.343,306.359 213.731 C 305.680 213.008,305.546 213.022,305.113 213.859 M333.596 213.586 C 333.596 214.118,334.273 214.579,335.126 214.627 C 335.639 214.656,336.005 214.592,335.939 214.486 C 335.873 214.379,335.577 214.353,335.282 214.427 C 334.889 214.526,334.589 214.407,334.170 213.988 C 333.854 213.672,333.596 213.491,333.596 213.586 M366.716 213.826 C 366.699 214.126,366.512 214.581,366.300 214.839 C 365.924 215.295,365.927 215.295,366.432 214.831 C 366.782 214.509,366.917 214.181,366.848 213.818 L 366.747 213.281 366.716 213.826 M311.225 213.943 C 311.293 214.121,311.619 214.439,311.949 214.649 C 312.547 215.029,312.546 215.028,311.888 214.325 C 311.148 213.534,311.045 213.475,311.225 213.943 M349.904 213.824 C 349.787 213.938,349.437 214.064,349.128 214.106 C 348.295 214.217,348.536 214.615,349.514 214.744 C 350.278 214.845,350.373 214.930,350.435 215.573 C 350.561 216.871,348.225 217.303,347.617 216.095 C 347.440 215.744,347.332 215.667,347.330 215.891 C 347.321 216.871,349.182 217.360,350.203 216.645 C 351.161 215.974,350.748 214.533,349.589 214.505 C 349.041 214.491,349.037 214.481,349.499 214.295 C 349.765 214.188,350.049 213.992,350.131 213.859 C 350.313 213.564,350.194 213.546,349.904 213.824 M351.829 213.777 C 351.829 214.254,352.529 214.744,353.209 214.744 C 353.638 214.744,353.826 214.833,353.729 214.990 C 353.646 215.126,353.192 215.200,352.722 215.155 C 352.252 215.110,351.915 215.151,351.974 215.246 C 352.143 215.520,353.511 215.447,353.810 215.149 C 354.261 214.698,354.118 214.519,353.305 214.519 C 352.759 214.519,352.426 214.371,352.179 214.019 C 351.987 213.743,351.829 213.635,351.829 213.777 M383.343 213.746 C 383.343 214.310,383.890 214.744,384.602 214.744 C 385.119 214.744,385.342 214.830,385.243 214.990 C 385.159 215.126,384.706 215.200,384.236 215.155 C 383.765 215.110,383.429 215.151,383.487 215.246 C 383.667 215.537,385.072 215.439,385.339 215.117 C 385.666 214.724,385.441 214.519,384.683 214.519 C 384.065 214.519,383.449 214.038,383.720 213.767 C 383.801 213.685,383.750 213.618,383.605 213.618 C 383.461 213.618,383.343 213.676,383.343 213.746 M299.156 213.947 C 299.156 214.037,299.358 214.368,299.606 214.683 C 299.854 214.997,300.056 215.181,300.056 215.091 C 300.056 215.001,299.854 214.670,299.606 214.355 C 299.358 214.040,299.156 213.856,299.156 213.947 M301.576 214.414 C 301.014 215.166,301.086 215.376,301.658 214.650 C 301.919 214.317,302.097 214.010,302.052 213.966 C 302.006 213.923,301.792 214.125,301.576 214.414 M336.536 214.337 C 336.518 214.838,337.374 215.424,338.092 215.401 C 338.698 215.383,338.589 215.317,337.582 215.095 C 337.227 215.016,336.865 214.737,336.752 214.456 C 336.604 214.088,336.547 214.057,336.536 214.337 M345.058 214.350 C 345.222 214.567,345.639 214.744,345.985 214.744 C 346.331 214.744,346.665 214.871,346.728 215.025 C 346.796 215.193,346.848 215.148,346.859 214.913 C 346.872 214.614,346.698 214.519,346.134 214.519 C 345.725 214.519,345.249 214.392,345.076 214.237 C 344.807 213.998,344.805 214.015,345.058 214.350 M365.658 214.316 C 365.569 214.462,365.215 214.509,364.801 214.429 C 364.296 214.333,364.192 214.357,364.434 214.516 C 364.924 214.837,365.464 214.793,365.785 214.406 C 365.939 214.221,366.008 214.069,365.938 214.069 C 365.869 214.069,365.743 214.180,365.658 214.316 M368.468 214.350 C 368.632 214.567,368.999 214.744,369.283 214.744 C 369.567 214.744,369.850 214.871,369.913 215.025 C 369.981 215.193,370.034 215.148,370.044 214.913 C 370.057 214.627,369.889 214.519,369.432 214.519 C 369.085 214.519,368.659 214.392,368.486 214.237 C 368.217 213.998,368.215 214.015,368.468 214.350 M372.331 214.337 C 372.289 215.225,374.405 215.815,375.012 215.084 C 375.234 214.816,375.229 214.730,374.983 214.651 C 374.341 214.445,373.242 214.383,373.351 214.560 C 373.414 214.661,373.819 214.744,374.253 214.744 C 374.721 214.744,374.984 214.835,374.902 214.969 C 374.527 215.576,372.751 215.083,372.469 214.294 C 372.372 214.021,372.345 214.029,372.331 214.337 M337.743 214.568 C 337.948 214.683,338.248 214.683,338.453 214.568 C 338.718 214.420,338.627 214.369,338.098 214.369 C 337.569 214.369,337.478 214.420,337.743 214.568 M379.741 214.463 C 379.741 214.862,380.682 215.422,381.311 215.396 C 381.779 215.377,381.743 215.341,381.103 215.190 C 380.675 215.090,380.194 214.827,380.034 214.608 C 379.873 214.388,379.741 214.323,379.741 214.463 M380.867 214.494 C 381.052 214.628,381.373 214.739,381.579 214.741 C 381.786 214.742,382.006 214.871,382.068 215.025 C 382.136 215.193,382.189 215.148,382.199 214.913 C 382.210 214.668,382.053 214.519,381.785 214.519 C 381.548 214.519,381.168 214.459,380.941 214.385 C 380.598 214.274,380.586 214.292,380.867 214.494 M364.041 214.969 C 364.100 215.189,364.438 215.317,365.015 215.335 C 365.860 215.363,365.865 215.360,365.112 215.261 C 364.679 215.204,364.241 215.039,364.138 214.894 C 364.010 214.715,363.979 214.739,364.041 214.969 M306.584 215.194 L 304.446 215.333 306.472 215.373 C 307.586 215.395,308.649 215.314,308.835 215.194 C 309.021 215.074,309.071 214.994,308.948 215.016 C 308.824 215.037,307.760 215.118,306.584 215.194 M334.947 215.194 C 334.168 215.358,334.166 215.360,334.834 215.386 C 335.205 215.401,335.661 215.314,335.847 215.194 C 336.222 214.952,336.097 214.952,334.947 215.194 M344.828 215.261 C 344.933 215.366,345.361 215.417,345.779 215.374 C 346.520 215.297,346.516 215.293,345.588 215.183 C 345.065 215.121,344.723 215.157,344.828 215.261 M348.313 215.521 C 348.130 215.999,348.406 216.320,349.001 216.320 C 349.590 216.320,350.142 215.785,349.922 215.429 C 349.702 215.074,348.457 215.145,348.313 215.521 M349.748 215.701 C 349.605 216.137,348.452 216.201,348.452 215.772 C 348.452 215.528,348.667 215.419,349.147 215.419 C 349.601 215.419,349.809 215.516,349.748 215.701 M285.469 217.360 C 285.733 217.438,285.872 217.765,285.919 218.416 C 286.015 219.739,286.636 219.728,286.732 218.402 C 286.770 217.876,286.897 217.445,287.014 217.445 C 287.329 217.445,287.270 219.336,286.944 219.664 C 286.719 219.892,286.743 219.917,287.068 219.794 C 287.605 219.589,287.544 217.333,287.001 217.333 C 286.764 217.333,286.642 217.620,286.594 218.289 C 286.504 219.525,286.146 219.527,286.057 218.291 C 286.002 217.528,285.897 217.327,285.537 217.291 C 285.210 217.258,285.191 217.277,285.469 217.360 M289.794 217.530 C 289.728 217.700,289.713 218.334,289.760 218.937 L 289.846 220.034 289.886 218.739 C 289.934 217.213,290.346 217.015,291.055 218.177 C 291.300 218.579,291.501 218.750,291.502 218.557 C 291.504 217.702,290.061 216.834,289.794 217.530 M291.503 217.440 C 291.503 217.581,291.599 217.637,291.716 217.565 C 291.838 217.490,291.967 217.969,292.016 218.678 L 292.102 219.923 292.084 218.646 C 292.072 217.837,291.962 217.334,291.784 217.275 C 291.629 217.224,291.503 217.298,291.503 217.440 M294.978 217.511 C 294.909 217.692,294.891 218.334,294.938 218.937 L 295.023 220.034 295.064 218.739 C 295.115 217.091,295.505 217.052,295.618 218.684 L 295.704 219.923 295.685 218.646 C 295.667 217.406,295.266 216.762,294.978 217.511 M298.255 217.620 C 298.255 218.145,298.694 219.503,298.958 219.793 C 299.062 219.909,299.039 219.656,298.905 219.231 C 298.482 217.883,298.422 217.445,298.661 217.445 C 298.789 217.445,298.945 217.549,299.008 217.676 C 299.071 217.803,299.096 217.777,299.064 217.620 C 298.966 217.134,298.255 217.135,298.255 217.620 M303.080 217.516 C 303.012 217.694,302.994 218.334,303.041 218.937 L 303.127 220.034 303.167 218.739 L 303.208 217.445 304.009 217.445 C 304.486 217.445,304.754 217.536,304.671 217.670 C 304.594 217.794,304.327 217.895,304.076 217.895 C 303.462 217.895,303.661 218.406,304.350 218.598 C 304.878 218.746,304.875 218.752,304.258 218.773 C 303.542 218.798,303.528 219.305,304.239 219.441 C 304.477 219.486,304.754 219.638,304.857 219.778 C 304.980 219.948,305.013 219.923,304.953 219.702 C 304.903 219.520,304.617 219.302,304.316 219.218 C 303.802 219.074,303.799 219.064,304.264 219.043 C 304.964 219.011,305.131 218.601,304.533 218.380 L 304.029 218.194 304.542 218.059 C 305.312 217.858,304.982 217.343,304.033 217.263 C 303.470 217.215,303.164 217.296,303.080 217.516 M307.351 217.530 C 307.286 217.700,307.271 218.334,307.318 218.937 L 307.403 220.034 307.444 218.739 C 307.483 217.486,307.504 217.445,308.104 217.449 C 309.059 217.454,309.369 217.749,309.196 218.490 C 309.086 218.963,309.107 219.044,309.275 218.796 C 309.633 218.266,309.550 217.707,309.075 217.453 C 308.456 217.122,307.492 217.165,307.351 217.530 M312.831 217.368 C 313.458 217.502,313.500 217.895,312.887 217.895 C 312.265 217.895,312.323 218.221,312.999 218.530 C 313.618 218.811,313.714 219.211,313.281 219.697 C 313.041 219.965,313.058 219.968,313.393 219.714 C 313.925 219.312,313.889 218.893,313.287 218.471 C 312.857 218.169,312.843 218.120,313.191 218.120 C 313.836 218.120,313.546 217.339,312.885 217.296 C 312.388 217.263,312.382 217.271,312.831 217.368 M316.038 217.445 C 316.038 217.569,316.165 217.645,316.320 217.614 C 316.516 217.575,316.601 217.914,316.601 218.740 C 316.601 219.390,316.677 219.922,316.770 219.922 C 317.129 219.921,316.952 217.498,316.583 217.357 C 316.102 217.172,316.038 217.183,316.038 217.445 M319.062 217.470 C 318.904 217.725,319.344 218.125,319.752 218.099 C 319.876 218.091,319.851 218.034,319.696 217.971 C 319.140 217.747,319.430 217.445,320.203 217.445 C 321.007 217.445,321.260 217.744,320.653 217.977 C 320.416 218.067,320.326 218.395,320.353 219.070 L 320.391 220.034 320.482 219.146 C 320.532 218.658,320.733 218.142,320.928 217.999 C 321.124 217.856,321.212 217.622,321.124 217.479 C 320.919 217.147,319.266 217.140,319.062 217.470 M322.918 217.422 C 322.850 217.533,323.001 217.862,323.255 218.153 L 323.717 218.683 323.461 218.157 C 323.129 217.475,323.405 217.200,323.836 217.783 C 324.151 218.208,324.186 218.211,324.462 217.839 C 324.969 217.155,325.320 217.366,324.930 218.120 C 324.738 218.492,324.631 218.796,324.693 218.796 C 324.755 218.796,324.964 218.490,325.157 218.116 C 325.574 217.309,324.999 216.808,324.477 217.524 C 324.232 217.858,324.169 217.862,323.919 217.560 C 323.604 217.181,323.109 217.113,322.918 217.422 M299.683 218.130 C 299.553 218.781,299.505 218.825,299.346 218.448 C 299.187 218.073,299.168 218.068,299.214 218.414 C 299.301 219.063,299.671 218.967,299.864 218.244 C 299.961 217.879,299.995 217.534,299.938 217.477 C 299.881 217.420,299.766 217.714,299.683 218.130 M308.235 218.233 C 308.235 218.426,308.327 218.552,308.439 218.515 C 308.552 218.477,308.644 218.351,308.644 218.233 C 308.644 218.115,308.552 217.988,308.439 217.951 C 308.327 217.913,308.235 218.040,308.235 218.233 M312.055 218.667 C 312.633 219.196,312.647 219.246,312.224 219.246 C 311.927 219.246,311.768 219.387,311.779 219.640 C 311.790 219.875,311.843 219.920,311.910 219.752 C 311.973 219.598,312.218 219.471,312.455 219.471 C 313.087 219.471,312.985 219.173,312.155 218.597 L 311.424 218.088 312.055 218.667 M290.396 219.145 C 290.416 220.023,290.418 220.026,290.616 219.364 C 290.739 218.950,290.732 218.610,290.596 218.475 C 290.454 218.332,290.384 218.568,290.396 219.145 " stroke="none" fill="#9ab2a9" fill-rule="evenodd"></path></g></svg>